# xmcd
#
# Track frame offsets:
# 150
# 23596
# 39235
# 53518
# 71179
# 89100
# 103900
# 115926
# 131106
# 146322
# 159106
# 175076
# 190625
# 205798
# 222892
#
# Disc length: 3288 seconds
#
#
# Revision: 0
# Processed by: cddbd v1.5.1PL2 Copyright (c) Steve Scherf et al.
# Submitted via: FreeRIP 2.942 
#
DISCID=cb0cd60f
DTITLE=Bruno and Marrone - Ao Vivo Em Goiânia - Bruno and Marrone - Ao Vivo Em Goiânia
DYEAR=2006
DGENRE=Sertaneja
TTITLE0=Por Te Amar Demais
TTITLE1=Vê se Toma Juizo
TTITLE2=Amor de Ping Pong
TTITLE3=Por Um Gole A Mais
TTITLE4=Marianne
TTITLE5=Doce Desejo
TTITLE6=Me Namora
TTITLE7=Que Pescar Que Nada
TTITLE8=Não Posso Ter Medo de Amar
TTITLE9=Desiguais
TTITLE10=Tá Pegando
TTITLE11=O Sonho Não Acabou
TTITLE12=Porque Choras
TTITLE13=Essa História Eu Conheço
TTITLE14=Choram As Rosas
EXTD=
EXTT0=
EXTT1=
EXTT2=
EXTT3=
EXTT4=
EXTT5=
EXTT6=
EXTT7=
EXTT8=
EXTT9=
EXTT10=
EXTT11=
EXTT12=
EXTT13=
EXTT14=
PLAYORDER=
